<svg width="18" height="18" viewBox="0 0 18 18" fill="none" xmlns="http://www.w3.org/2000/svg">
<g clip-path="url(#clip0_13_39)">
<path d="M9 3C5.4825 3 2.445 5.055 1.0125 8.025C0.832502 8.4 0.832502 8.85 1.0125 9.225C2.445 12.195 5.4825 14.25 9 14.25C12.5175 14.25 15.555 12.195 16.9875 9.225C17.1675 8.85 17.1675 8.4 16.9875 8.025C15.555 5.055 12.5175 3 9 3ZM9 12C7.14 12 5.625 10.485 5.625 8.625C5.625 6.765 7.14 5.25 9 5.25C10.86 5.25 12.375 6.765 12.375 8.625C12.375 10.485 10.86 12 9 12Z" fill="#BBB4AA"/>
<path d="M8.99998 10.65C10.1184 10.65 11.025 9.74338 11.025 8.62501C11.025 7.50663 10.1184 6.60001 8.99998 6.60001C7.8816 6.60001 6.97498 7.50663 6.97498 8.62501C6.97498 9.74338 7.8816 10.65 8.99998 10.65Z" fill="#BBB4AA"/>
</g>
<defs>
<clipPath id="clip0_13_39">
<rect width="18" height="18" fill="white"/>
</clipPath>
</defs>
</svg>
